<svg xmlns="http://www.w3.org/2000/svg" version="1.1" xmlns:xlink="http://www.w3.org/1999/xlink" xmlns:svgjs="http://svgjs.dev/svgjs" width="1000" height="999" viewBox="0 0 1000 999"><g transform="matrix(1,0,0,1,-0.215743440233382,-0.21552769679306039)"><svg viewBox="0 0 343 343" data-background-color="#ffffff" preserveAspectRatio="xMidYMid meet" height="999" width="1000" xmlns="http://www.w3.org/2000/svg" xmlns:xlink="http://www.w3.org/1999/xlink"><g id="tight-bounds" transform="matrix(1,0,0,1,0.0740000000000407,0.07400000000001228)"><svg viewBox="0 0 342.85155851775386 342.85155851775386" height="342.85155851775386" width="342.85155851775386"><g><svg></svg></g><g><svg viewBox="0 0 342.85155851775386 342.85155851775386" height="342.85155851775386" width="342.85155851775386"><g><path d="M0 171.426c0-94.676 76.75-171.426 171.426-171.426 94.676 0 171.426 76.75 171.426 171.426 0 94.676-76.75 171.426-171.426 171.426-94.676 0-171.426-76.75-171.426-171.426zM171.426 328.44c86.717 0 157.015-70.298 157.014-157.014 0-86.717-70.298-157.015-157.014-157.015-86.717 0-157.015 70.298-157.015 157.015 0 86.717 70.298 157.015 157.015 157.014z" data-fill-palette-color="tertiary" fill="#e08dac" stroke="transparent"></path><ellipse rx="164.56874808852186" ry="164.56874808852186" cx="171.42577925887693" cy="171.42577925887693" fill="#e08dac" stroke="transparent" stroke-width="0" fill-opacity="1" data-fill-palette-color="tertiary"></ellipse></g><g transform="matrix(1,0,0,1,64.84655864529837,91.52465593341195)"><svg viewBox="0 0 213.1584412271571 159.80224665092996" height="159.80224665092996" width="213.1584412271571"><g><svg viewBox="0 0 213.1584412271571 159.80224665092996" height="159.80224665092996" width="213.1584412271571"><g><svg viewBox="0 0 213.1584412271571 159.80224665092996" height="159.80224665092996" width="213.1584412271571"><g><svg viewBox="0 0 213.1584412271571 159.80224665092996" height="159.80224665092996" width="213.1584412271571"><g id="textblocktransform"><svg viewBox="0 0 213.1584412271571 159.80224665092996" height="159.80224665092996" width="213.1584412271571" id="textblock"><g><svg viewBox="0 0 213.1584412271571 159.80224665092996" height="159.80224665092996" width="213.1584412271571"><g transform="matrix(1,0,0,1,0,0)"><svg width="213.1584412271571" viewBox="1.3700000047683716 -42.189998626708984 58.61000061035156 43.94999694824219" height="159.80224665092996" data-palette-color="#def8ea"><path d="M34.57 0L34.57-21.12 36.33-21.12 36.33 0 34.57 0ZM41.6 0L41.6-21.12 43.36-21.12 43.36 0 41.6 0ZM38.09 0L38.09-21.12 39.84-21.12 39.84 0 38.09 0ZM31.05-21.12L32.81-21.12 32.81 0Q28.17 1.76 23.19 1.76L23.19 1.76Q18.87 1.76 14.92 0.17 10.96-1.42 7.96-4.24 4.96-7.06 3.16-11.22 1.37-15.38 1.37-20.21L1.37-20.21Q1.37-24.68 3.11-28.75 4.86-32.81 7.8-35.75 10.74-38.7 14.81-40.44 18.87-42.19 23.34-42.19L23.34-42.19Q28.91-42.19 33.69-39.6 38.48-37.01 41.5-32.57L41.5-32.57 40.04-31.62Q37.26-35.69 32.85-38.06 28.44-40.43 23.34-40.43L23.34-40.43Q19.24-40.43 15.49-38.83 11.74-37.23 9.03-34.52 6.32-31.81 4.72-28.06 3.13-24.32 3.13-20.21L3.13-20.21Q3.13-15.8 4.77-11.96 6.42-8.13 9.17-5.54 11.91-2.95 15.55-1.48 19.19 0 23.12 0L23.12 0Q27.25 0 31.05-1.29L31.05-1.29 31.05-2.98Q27.42-1.76 23.41-1.76L23.41-1.76Q20.51-1.76 17.76-2.58 15.01-3.39 12.68-4.99 10.35-6.59 8.61-8.8 6.86-11.01 5.87-13.95 4.88-16.89 4.88-20.21L4.88-20.21Q4.88-25.22 7.36-29.47 9.84-33.72 14.09-36.19 18.33-38.67 23.34-38.67L23.34-38.67Q28.03-38.67 32.06-36.49 36.08-34.3 38.62-30.57L38.62-30.57 37.16-29.61Q34.86-32.98 31.21-34.95 27.56-36.91 23.34-36.91L23.34-36.91Q19.95-36.91 16.85-35.6 13.75-34.28 11.51-32.04 9.28-29.81 7.96-26.71 6.64-23.61 6.64-20.21L6.64-20.21Q6.64-17.16 7.53-14.49 8.42-11.82 10-9.83 11.57-7.84 13.67-6.41 15.77-4.98 18.25-4.25 20.73-3.52 23.34-3.52L23.34-3.52Q27.39-3.52 31.05-4.88L31.05-4.88 31.05-6.64Q27.44-5.25 23.51-5.25L23.51-5.25Q20.53-5.25 17.82-6.26 15.11-7.28 13-9.13 10.89-10.99 9.64-13.87 8.4-16.75 8.4-20.21L8.4-20.21Q8.4-24.27 10.4-27.71 12.4-31.15 15.84-33.15 19.29-35.16 23.34-35.16L23.34-35.16Q27.12-35.16 30.38-33.4 33.64-31.64 35.69-28.61L35.69-28.61 34.23-27.66Q32.42-30.3 29.55-31.85 26.68-33.4 23.34-33.4L23.34-33.4Q19.75-33.4 16.72-31.63 13.7-29.86 11.93-26.83 10.16-23.8 10.16-20.21L10.16-20.21Q10.16-17.72 10.86-15.58 11.57-13.43 12.82-11.87 14.06-10.3 15.73-9.2 17.41-8.11 19.34-7.56 21.26-7.01 23.34-7.01L23.34-7.01Q27.47-7.01 31.05-8.64L31.05-8.64 31.05-10.33Q27.59-8.79 23.56-8.79L23.56-8.79Q21.24-8.79 19.19-9.5 17.14-10.21 15.49-11.57 13.84-12.94 12.88-15.17 11.91-17.41 11.91-20.21L11.91-20.21Q11.91-22.53 12.82-24.65 13.72-26.76 15.26-28.3 16.8-29.83 18.91-30.74 21.02-31.64 23.34-31.64L23.34-31.64Q26.25-31.64 28.74-30.29 31.23-28.93 32.79-26.61L32.79-26.61 31.35-25.66Q30.03-27.61 27.92-28.75 25.81-29.88 23.34-29.88L23.34-29.88Q19.34-29.88 16.5-27.05 13.67-24.22 13.67-20.21L13.67-20.21Q13.67-17.75 14.48-15.86 15.28-13.96 16.69-12.83 18.09-11.69 19.81-11.12 21.53-10.55 23.51-10.55L23.51-10.55Q27.56-10.55 31.05-12.23L31.05-12.23 31.05-21.12ZM58.23 0L58.23-40.43 59.98-40.43 59.98 0 58.23 0ZM54.71 0L54.71-40.43 56.47-40.43 56.47 0 54.71 0ZM51.19 0L51.19-40.43 52.95-40.43 52.95 0 51.19 0ZM47.68 0L47.68-40.43 49.44-40.43 49.44 0 47.68 0Z" opacity="1" transform="matrix(1,0,0,1,0,0)" fill="#def8ea" class="wordmark-text-0" data-fill-palette-color="quaternary" id="text-0"></path></svg></g></svg></g></svg></g></svg></g><g></g></svg></g></svg></g></svg></g></svg></g><defs></defs></svg><rect width="342.85155851775386" height="342.85155851775386" fill="none" stroke="none" visibility="hidden"></rect></g></svg></g></svg>